<svg width="12" height="12" viewBox="0 0 12 12" fill="none" xmlns="http://www.w3.org/2000/svg">
<path d="M5.28721 0.295557L0.285132 5.29144C0.194053 5.38646 0.122659 5.49852 0.0750444 5.62117C-0.0250152 5.86443 -0.0250152 6.13728 0.0750445 6.38054C0.122659 6.50319 0.194053 6.61524 0.285132 6.71027L5.28721 11.7062C5.38049 11.7993 5.49122 11.8732 5.6131 11.9236C5.73497 11.974 5.86559 12 5.99751 12C6.26392 12 6.51942 11.8943 6.7078 11.7062C6.89618 11.518 7.00202 11.2628 7.00202 10.9967C7.00202 10.7307 6.89618 10.4755 6.7078 10.2873L3.40643 7.00003L10.9996 7.00003C11.2649 7.00003 11.5194 6.89476 11.707 6.70738C11.8946 6.51999 12 6.26585 12 6.00085C12 5.73585 11.8946 5.48171 11.707 5.29433C11.5194 5.10695 11.2649 5.00168 10.9996 5.00168L3.40643 5.00168L6.7078 1.71439C6.80157 1.6215 6.87599 1.51099 6.92678 1.38923C6.97757 1.26747 7.00372 1.13687 7.00372 1.00497C7.00372 0.873068 6.97757 0.742469 6.92678 0.620711C6.87599 0.498952 6.80157 0.388443 6.7078 0.295557C6.6148 0.201905 6.50415 0.127571 6.38224 0.0768439C6.26033 0.0261171 6.12957 6.85742e-07 5.99751 6.91515e-07C5.86544 6.97288e-07 5.73468 0.0261171 5.61277 0.076844C5.49086 0.127571 5.38021 0.201905 5.28721 0.295557Z" fill="black"/>
</svg>
