<svg width="24" height="24" viewBox="0 0 24 24" fill="none" xmlns="http://www.w3.org/2000/svg">
<path d="M12 19.5C16.1421 19.5 19.5 16.1421 19.5 12C19.5 7.85786 16.1421 4.5 12 4.5C7.85786 4.5 4.5 7.85786 4.5 12C4.5 16.1421 7.85786 19.5 12 19.5Z" fill="#7D7D7D"/>
<path d="M22 12.75C21.8011 12.75 21.6103 12.671 21.4697 12.5303C21.329 12.3897 21.25 12.1989 21.25 12C21.2503 11.4711 21.2051 10.9432 21.115 10.422C21.0983 10.3249 21.1008 10.2254 21.1225 10.1293C21.1442 10.0332 21.1846 9.94226 21.2414 9.86175C21.2983 9.78125 21.3704 9.71272 21.4537 9.66009C21.537 9.60745 21.6299 9.57175 21.727 9.555C21.9231 9.52119 22.1247 9.56667 22.2872 9.68144C22.3678 9.73827 22.4363 9.8104 22.4889 9.89371C22.5415 9.97703 22.5773 10.0699 22.594 10.167C22.6976 10.7725 22.7498 11.3857 22.75 12C22.75 12.1989 22.671 12.3897 22.5303 12.5303C22.3897 12.671 22.1989 12.75 22 12.75ZM21.32 9.121C21.1688 9.12144 21.021 9.0761 20.8961 8.99096C20.7712 8.90583 20.6749 8.78487 20.62 8.644C20.3954 8.06977 20.1147 7.5191 19.782 7C19.7287 6.91714 19.6923 6.8246 19.6749 6.72766C19.6574 6.63073 19.6591 6.5313 19.6801 6.43505C19.701 6.3388 19.7407 6.24762 19.7969 6.16671C19.8531 6.08581 19.9246 6.01676 20.0075 5.9635C20.0904 5.91025 20.1829 5.87384 20.2798 5.85636C20.3768 5.83887 20.4762 5.84065 20.5725 5.86159C20.6687 5.88253 20.7599 5.92222 20.8408 5.9784C20.9217 6.03458 20.9907 6.10614 21.044 6.189C21.4319 6.79189 21.7586 7.43208 22.019 8.1C22.0912 8.28526 22.0869 8.49161 22.007 8.67369C21.9271 8.85577 21.7782 8.99868 21.593 9.071C21.5058 9.10413 21.4133 9.12108 21.32 9.121ZM18.44 5.1C18.2631 5.10005 18.092 5.03733 17.957 4.923C17.4855 4.52497 16.9753 4.17522 16.434 3.879C16.2595 3.78353 16.1301 3.62263 16.0742 3.43172C16.0183 3.24081 16.0405 3.03552 16.136 2.861C16.2315 2.68649 16.3924 2.55705 16.5833 2.50117C16.7742 2.44528 16.9795 2.46753 17.154 2.563C17.7831 2.90716 18.376 3.31353 18.924 3.776C19.0418 3.87509 19.1263 4.00804 19.166 4.1568C19.2056 4.30556 19.1985 4.46291 19.1457 4.60751C19.0928 4.7521 18.9968 4.87693 18.8705 4.96504C18.7443 5.05314 18.594 5.10027 18.44 5.1ZM14.954 3.194C14.8787 3.19383 14.8039 3.18237 14.732 3.16C13.847 2.88722 12.9261 2.74901 12 2.75C11.8011 2.75 11.6103 2.67099 11.4697 2.53033C11.329 2.38968 11.25 2.19892 11.25 2C11.25 1.80109 11.329 1.61033 11.4697 1.46967C11.6103 1.32902 11.8011 1.25 12 1.25C13.0766 1.24917 14.1473 1.41031 15.176 1.728C15.3471 1.78136 15.4935 1.89423 15.5885 2.04617C15.6836 2.19811 15.7211 2.37908 15.6943 2.5563C15.6675 2.73352 15.578 2.89526 15.4422 3.01224C15.3064 3.12922 15.1332 3.1937 14.954 3.194Z" fill="#7D7D7D"/>
<path d="M12 22.75C9.14892 22.75 6.41462 21.6174 4.3986 19.6014C2.38259 17.5854 1.25 14.8511 1.25 12C1.25 9.14892 2.38259 6.41462 4.3986 4.3986C6.41462 2.38259 9.14892 1.25 12 1.25C12.1989 1.25 12.3897 1.32902 12.5303 1.46967C12.671 1.61032 12.75 1.80109 12.75 2C12.75 2.19891 12.671 2.38968 12.5303 2.53033C12.3897 2.67098 12.1989 2.75 12 2.75C10.1705 2.75 8.38213 3.2925 6.86098 4.30891C5.33982 5.32531 4.15423 6.76996 3.45411 8.46018C2.754 10.1504 2.57082 12.0103 2.92774 13.8046C3.28465 15.5989 4.16563 17.2471 5.45926 18.5407C6.7529 19.8344 8.40109 20.7154 10.1954 21.0723C11.9897 21.4292 13.8496 21.246 15.5398 20.5459C17.23 19.8458 18.6747 18.6602 19.6911 17.139C20.7075 15.6179 21.25 13.8295 21.25 12C21.25 11.8011 21.329 11.6103 21.4697 11.4697C21.6103 11.329 21.8011 11.25 22 11.25C22.1989 11.25 22.3897 11.329 22.5303 11.4697C22.671 11.6103 22.75 11.8011 22.75 12C22.7468 14.8501 21.6132 17.5826 19.5979 19.5979C17.5826 21.6132 14.8501 22.7468 12 22.75Z" fill="#7D7D7D"/>
<path d="M16 15.75C15.838 15.7499 15.6805 15.6973 15.551 15.6L11.551 12.6C11.4579 12.5301 11.3823 12.4396 11.3302 12.3354C11.2781 12.2313 11.251 12.1164 11.251 12V7C11.251 6.80109 11.33 6.61032 11.4707 6.46967C11.6113 6.32902 11.8021 6.25 12.001 6.25C12.1999 6.25 12.3907 6.32902 12.5313 6.46967C12.672 6.61032 12.751 6.80109 12.751 7V11.625L16.451 14.4C16.577 14.4945 16.6701 14.6263 16.717 14.7766C16.7639 14.927 16.7623 15.0883 16.7124 15.2376C16.6625 15.387 16.5668 15.5169 16.4389 15.6089C16.3111 15.7008 16.1575 15.7502 16 15.75Z" fill="white"/>
</svg>
