<svg width="24" height="20" viewBox="0 0 24 20" fill="none" xmlns="http://www.w3.org/2000/svg">
<g clip-path="url(#clip0_1_1072)">
<path d="M13.5772 9.87432L15.9169 12.5486L19.0629 14.5591L19.6115 9.89077L19.0629 5.32666L15.8565 7.09306L13.5772 9.87432Z" fill="#00832D"/>
<path d="M0 14.1256V18.1027C0 19.012 0.736457 19.7484 1.64571 19.7484H5.62286L6.44571 16.7423L5.62286 14.1256L2.89371 13.3027L0 14.1256Z" fill="#0066DA"/>
<path d="M5.62286 0L0 5.62286L2.89371 6.44571L5.62286 5.62286L6.432 3.04183L5.62286 0Z" fill="#E94235"/>
<path d="M5.62286 5.6228H0V14.1257H5.62286V5.6228Z" fill="#2684FC"/>
<path d="M22.656 2.38079L19.0629 5.32662V14.5591L22.6725 17.5186C23.2128 17.941 24.0028 17.5556 24.0028 16.8686V3.01713C24.0028 2.32182 23.195 1.94056 22.656 2.38079ZM13.5772 9.87427V14.1257H5.62289V19.7486H17.4172C18.3264 19.7486 19.0629 19.0121 19.0629 18.1028V14.5591L13.5772 9.87427Z" fill="#00AC47"/>
<path d="M17.4172 0H5.62289V5.62286H13.5772V9.87429L19.0629 5.32937V1.64571C19.0629 0.736457 18.3264 0 17.4172 0Z" fill="#FFBA00"/>
</g>
<defs>
<clipPath id="clip0_1_1072">
<rect width="24" height="19.7486" fill="white"/>
</clipPath>
</defs>
</svg>
