<svg width="154" height="36" viewBox="0 0 154 36" fill="none" xmlns="http://www.w3.org/2000/svg">
<rect x="0.75" width="153.25" height="36" rx="6" fill="#380E4D"/>
<path d="M17.4673 21.5V14.2273H20.1946C20.7533 14.2273 21.2221 14.3314 21.6009 14.5398C21.982 14.7481 22.2696 15.0346 22.4638 15.3991C22.6603 15.7614 22.7585 16.1733 22.7585 16.6349C22.7585 17.1013 22.6603 17.5156 22.4638 17.8778C22.2673 18.2401 21.9773 18.5253 21.5938 18.7337C21.2102 18.9396 20.7379 19.0426 20.1768 19.0426H18.3693V17.9595H19.9993C20.326 17.9595 20.5935 17.9027 20.8018 17.7891C21.0102 17.6754 21.1641 17.5192 21.2635 17.3203C21.3653 17.1214 21.4162 16.893 21.4162 16.6349C21.4162 16.3769 21.3653 16.1496 21.2635 15.9531C21.1641 15.7566 21.009 15.6039 20.7983 15.495C20.59 15.3838 20.3213 15.3281 19.9922 15.3281H18.7848V21.5H17.4673ZM30.4015 17.8636C30.4015 18.6473 30.2547 19.3184 29.9611 19.8771C29.6699 20.4335 29.2722 20.8596 28.7679 21.1555C28.266 21.4515 27.6967 21.5994 27.0598 21.5994C26.423 21.5994 25.8525 21.4515 25.3482 21.1555C24.8463 20.8572 24.4486 20.4299 24.155 19.8736C23.8638 19.3149 23.7182 18.6449 23.7182 17.8636C23.7182 17.08 23.8638 16.41 24.155 15.8537C24.4486 15.295 24.8463 14.8677 25.3482 14.5717C25.8525 14.2758 26.423 14.1278 27.0598 14.1278C27.6967 14.1278 28.266 14.2758 28.7679 14.5717C29.2722 14.8677 29.6699 15.295 29.9611 15.8537C30.2547 16.41 30.4015 17.08 30.4015 17.8636ZM29.0769 17.8636C29.0769 17.312 28.9905 16.8468 28.8176 16.468C28.6472 16.0869 28.4105 15.7992 28.1074 15.6051C27.8044 15.4086 27.4552 15.3104 27.0598 15.3104C26.6645 15.3104 26.3153 15.4086 26.0123 15.6051C25.7092 15.7992 25.4713 16.0869 25.2985 16.468C25.128 16.8468 25.0428 17.312 25.0428 17.8636C25.0428 18.4152 25.128 18.8816 25.2985 19.2628C25.4713 19.6416 25.7092 19.9292 26.0123 20.1257C26.3153 20.3198 26.6645 20.4169 27.0598 20.4169C27.4552 20.4169 27.8044 20.3198 28.1074 20.1257C28.4105 19.9292 28.6472 19.6416 28.8176 19.2628C28.9905 18.8816 29.0769 18.4152 29.0769 17.8636ZM32.992 21.5L30.9395 14.2273H32.3564L33.6667 19.5717H33.7342L35.1333 14.2273H36.4224L37.8251 19.5753H37.889L39.1994 14.2273H40.6163L38.5637 21.5H37.264L35.8081 16.397H35.7512L34.2917 21.5H32.992ZM41.5298 21.5V14.2273H46.2599V15.3317H42.8473V17.3061H46.0149V18.4105H42.8473V20.3956H46.2884V21.5H41.5298ZM47.604 21.5V14.2273H50.3313C50.89 14.2273 51.3588 14.3243 51.7376 14.5185C52.1187 14.7126 52.4064 14.9848 52.6005 15.3352C52.797 15.6832 52.8952 16.0893 52.8952 16.5533C52.8952 17.0196 52.7958 17.4245 52.5969 17.7678C52.4004 18.1087 52.1104 18.3726 51.7269 18.5597C51.3434 18.7443 50.8723 18.8366 50.3136 18.8366H48.3711V17.7429H50.136C50.4627 17.7429 50.7302 17.6979 50.9386 17.608C51.1469 17.5156 51.3008 17.3819 51.4002 17.2067C51.502 17.0291 51.5529 16.8113 51.5529 16.5533C51.5529 16.2952 51.502 16.075 51.4002 15.8928C51.2984 15.7081 51.1433 15.5684 50.935 15.4737C50.7267 15.3767 50.458 15.3281 50.1289 15.3281H48.9215V21.5H47.604ZM51.3612 18.2045L53.1616 21.5H51.6914L49.9229 18.2045H51.3612ZM54.108 21.5V14.2273H58.8381V15.3317H55.4254V17.3061H58.593V18.4105H55.4254V20.3956H58.8665V21.5H54.108ZM62.6467 21.5H60.1822V14.2273H62.6964C63.4184 14.2273 64.0387 14.3729 64.5572 14.6641C65.078 14.9529 65.4781 15.3684 65.7575 15.9105C66.0368 16.4527 66.1765 17.1013 66.1765 17.8565C66.1765 18.6141 66.0356 19.2652 65.7539 19.8097C65.4746 20.3542 65.0709 20.772 64.543 21.0632C64.0174 21.3544 63.3853 21.5 62.6467 21.5ZM61.4996 20.3601H62.5827C63.0894 20.3601 63.512 20.2678 63.8505 20.0831C64.189 19.8961 64.4435 19.6179 64.614 19.2486C64.7844 18.8769 64.8697 18.4129 64.8697 17.8565C64.8697 17.3002 64.7844 16.8385 64.614 16.4716C64.4435 16.1023 64.1914 15.8265 63.8576 15.6442C63.5262 15.4595 63.1142 15.3672 62.6218 15.3672H61.4996V20.3601ZM69.9087 21.5V14.2273H72.6928C73.2184 14.2273 73.6552 14.3101 74.0032 14.4759C74.3536 14.6392 74.6152 14.8629 74.788 15.147C74.9632 15.4311 75.0508 15.7531 75.0508 16.1129C75.0508 16.4089 74.994 16.6622 74.8803 16.8729C74.7667 17.0812 74.614 17.2505 74.4222 17.3807C74.2305 17.5109 74.0162 17.6044 73.7795 17.6612V17.7322C74.0375 17.7464 74.2849 17.8258 74.5217 17.9702C74.7608 18.1122 74.9561 18.3134 75.1076 18.5739C75.2591 18.8343 75.3349 19.1491 75.3349 19.5185C75.3349 19.8949 75.2437 20.2334 75.0614 20.5341C74.8791 20.8324 74.6045 21.0679 74.2376 21.2408C73.8706 21.4136 73.409 21.5 72.8526 21.5H69.9087ZM71.2262 20.3991H72.6431C73.1213 20.3991 73.4658 20.308 73.6765 20.1257C73.8896 19.9411 73.9961 19.7043 73.9961 19.4155C73.9961 19.2 73.9428 19.0059 73.8363 18.8331C73.7298 18.6579 73.5782 18.5206 73.3817 18.4212C73.1853 18.3194 72.9509 18.2685 72.6786 18.2685H71.2262V20.3991ZM71.2262 17.3203H72.5295C72.7567 17.3203 72.9615 17.2789 73.1438 17.196C73.3261 17.1108 73.4693 16.9912 73.5735 16.8374C73.68 16.6811 73.7333 16.4964 73.7333 16.2834C73.7333 16.0017 73.6339 15.7696 73.435 15.5874C73.2385 15.4051 72.9461 15.3139 72.5579 15.3139H71.2262V17.3203ZM75.9838 14.2273H77.4718L79.2509 17.4446H79.3219L81.101 14.2273H82.589L79.9434 18.7869V21.5H78.6294V18.7869L75.9838 14.2273Z" fill="white"/>
<path d="M105.676 23.3136H108.183C108.467 23.3136 108.656 23.1246 108.656 22.841V14.0026C108.656 13.719 108.467 13.53 108.183 13.53H105.818C105.582 13.53 105.345 13.719 105.345 14.0026L105.203 22.841C105.203 23.1246 105.44 23.3136 105.676 23.3136Z" fill="white"/>
<path d="M99.6009 13.9996L98.3237 18.0673L95.249 8.33085C95.2017 8.14179 95.0125 8 94.8232 8H92.0323C91.7012 8 91.4647 8.33085 91.6066 8.61443L96.6681 23.03C96.7154 23.2191 96.9046 23.3608 97.0938 23.3608H99.6009C99.7901 23.3608 99.9793 23.2191 100.027 23.03C100.547 21.5648 101.148 19.6666 102.19 16.9583C103.231 14.25 104.541 13.8136 105.203 13.53L100.037 13.5555C99.8476 13.6028 99.6482 13.7633 99.6009 13.9996Z" fill="white"/>
<path d="M110.29 23.3135C110.006 23.3135 109.816 23.0772 109.816 22.8409C109.864 22.1792 109.864 21.1866 109.864 20.2414V8.66164C109.864 8.37806 110.053 8.18901 110.337 8.18901H112.749C113.033 8.18901 113.222 8.37806 113.222 8.66164V14.2861H113.27C113.932 13.3408 115.115 12.7264 116.723 12.7264C119.372 12.7264 121.501 14.7114 121.453 18.0199C121.453 21.8011 118.804 23.5971 116.25 23.5971C114.925 23.5971 113.601 23.1245 112.797 21.8011H112.749L112.655 22.8881C112.655 23.1245 112.418 23.3135 112.182 23.3135H110.29ZM113.222 18.6816C113.222 18.8707 113.222 19.0125 113.27 19.2016C113.27 19.2488 113.27 19.2488 113.27 19.2961C113.506 20.1468 114.358 20.9503 115.493 20.9503C117.007 20.9503 118 19.9105 118 18.1145C118 16.5547 117.196 15.2786 115.493 15.2786C114.452 15.2786 113.506 15.9876 113.27 17.0746C113.222 17.2637 113.222 17.4528 113.222 17.6891V18.6816Z" fill="white"/>
<path d="M122.945 8.18901H125.357C125.641 8.18901 125.83 8.37806 125.83 8.66164V22.8881C125.83 23.1717 125.641 23.3608 125.357 23.3608H122.945C122.661 23.3608 122.472 23.1717 122.472 22.8881V8.66164C122.472 8.37806 122.708 8.18901 122.945 8.18901Z" fill="white"/>
<path d="M129.961 12.9627C130.151 12.9627 130.34 13.1045 130.387 13.2936L131.996 17.9727C132.185 18.5871 132.421 19.4379 132.61 19.9578H132.658C132.847 19.3906 133.036 18.5399 133.178 17.9727L134.503 13.3408C134.55 13.1518 134.739 13.01 134.976 13.01H137.625C137.956 13.01 138.192 13.3408 138.05 13.6717L135.78 19.4379C133.935 24.3061 132.894 25.7713 131.664 26.7638C130.718 27.52 129.678 27.8509 128.826 27.9927C128.59 28.04 128.353 27.8509 128.306 27.6146L127.88 25.6768C127.833 25.4404 127.975 25.1568 128.211 25.1096C128.495 25.0151 128.826 24.9206 129.205 24.7315C129.725 24.4952 130.34 23.9753 130.671 23.4081C130.766 23.2663 130.86 23.0772 130.86 22.9354C130.86 22.7936 130.813 22.6518 130.671 22.3683L126.839 13.5772C126.697 13.2463 126.934 12.9155 127.265 12.9155H129.961V12.9627Z" fill="white"/>
<path d="M102.16 8.13867C101.781 8.13867 101.403 8.2332 101.119 8.46952C100.788 8.65858 100.551 8.98942 100.409 9.32027C100.267 9.65112 100.22 10.0292 100.315 10.4074C100.409 10.7855 100.551 11.1163 100.835 11.3999C101.119 11.6835 101.45 11.8253 101.828 11.9198C102.207 12.0143 102.585 11.9671 102.916 11.8253C103.248 11.6835 103.579 11.4472 103.768 11.1163C103.957 10.7855 104.099 10.4546 104.099 10.0765C104.099 9.84018 104.052 9.60386 103.957 9.36754C103.862 9.13122 103.721 8.94216 103.531 8.7531C103.342 8.56405 103.153 8.42226 102.916 8.32773C102.68 8.18594 102.443 8.13867 102.16 8.13867Z" fill="#61BDE4"/>
<path d="M106.953 8.13867C106.575 8.13867 106.197 8.2332 105.913 8.46952C105.582 8.65858 105.345 8.98942 105.203 9.32027C105.061 9.65112 105.014 10.0292 105.109 10.4074C105.203 10.7855 105.345 11.1163 105.629 11.3526C105.913 11.6362 106.244 11.778 106.575 11.8725C106.953 11.9671 107.332 11.9198 107.663 11.778C107.994 11.6362 108.325 11.3999 108.514 11.069C108.704 10.7382 108.846 10.4074 108.846 10.0292C108.846 9.50933 108.656 9.03669 108.278 8.70584C107.947 8.32773 107.426 8.13867 106.953 8.13867Z" fill="#DCAD4A"/>
</svg>
